<?xml version="1.0" encoding="UTF-8" standalone="no"?>
<!DOCTYPE svg PUBLIC "-//W3C//DTD SVG 1.1//EN" "http://www.w3.org/Graphics/SVG/1.1/DTD/svg11.dtd">
<!-- Generated by Microsoft Visio, SVG Export logo.svg Page-1 -->
<svg xmlns="http://www.w3.org/2000/svg" xmlns:xlink="http://www.w3.org/1999/xlink" xmlns:ev="http://www.w3.org/2001/xml-events"
		xmlns:v="http://schemas.microsoft.com/visio/2003/SVGExtensions/" width="9.30794in" height="1.85334in"
		viewBox="0 0 670.172 133.44" xml:space="preserve" color-interpolation-filters="sRGB" class="st5">
	<v:documentProperties v:langID="1033" v:viewMarkup="false">
		<v:userDefs>
			<v:ud v:nameU="msvNoAutoConnect" v:val="VT0(1):26"/>
		</v:userDefs>
	</v:documentProperties>

	<style type="text/css">
	<![CDATA[
		.st1 {fill:#31859b;stroke:none;stroke-linecap:round;stroke-linejoin:round;stroke-width:0.75}
		.st2 {fill:none;stroke:none;stroke-linecap:round;stroke-linejoin:round;stroke-width:0.75}
		.st3 {fill:#31859b;font-family:Calibri;font-size:6em}
		.st4 {fill:#000000;font-size:1em}
		.st5 {fill:none;fill-rule:evenodd;font-size:12px;overflow:visible;stroke-linecap:square;stroke-miterlimit:3}
	]]>
	</style>

	<g v:mID="0" v:index="1" v:groupContext="foregroundPage">
		<title>Page-1</title>
		<v:pageProperties v:drawingScale="1" v:pageScale="1" v:drawingUnits="19" v:shadowOffsetX="9" v:shadowOffsetY="-9"/>
		<g id="group36-1" transform="translate(20.9674,-21.2702)" v:mID="36" v:groupContext="group">
			<title>Sheet.36</title>
			<g id="shape2-2" v:mID="2" v:groupContext="shape" transform="translate(31.4395,0)">
				<title>Sheet.2</title>
				<rect x="0" y="55.6277" width="8.38386" height="77.8127" class="st1"/>
			</g>
			<g id="shape30-4" v:mID="30" v:groupContext="shape" transform="translate(-2.59244,-4.83169E-13)">
				<title>Sheet.30</title>
				<path d="M29.34 92.57 A18.3397 15.7197 -0 0 0 29.34 124.01 L29.34 133.44 A29.3435 25.1516 0 0 1 29.34 83.14 L29.34
							 92.57 Z" class="st1"/>
			</g>
			<g id="shape31-6" v:mID="31" v:groupContext="shape" transform="translate(-1.42393,21.7822) rotate(-33.2)">
				<title>Sheet.31</title>
				<rect x="0" y="88.6392" width="8.10373" height="44.8011" class="st1"/>
			</g>
			<g id="shape32-8" v:mID="32" v:groupContext="shape" transform="translate(117.691,160.208) rotate(155)">
				<title>Sheet.32</title>
				<path d="M24.38 94.83 A15.2389 14.8501 -0 0 0 24.38 124.53 L24.38 133.44 A24.3823 23.7602 0 0 1 24.38 85.92 L24.38
							 94.83 Z" class="st1"/>
			</g>
			<g id="shape35-10" v:mID="35" v:groupContext="shape" transform="translate(-33.9067,133.44) rotate(-90)">
				<title>Sheet.35</title>
				<rect x="0" y="105.519" width="8.10373" height="27.9215" class="st1"/>
			</g>
		</g>
		<g id="shape37-12" v:mID="37" v:groupContext="shape" transform="translate(-53.9605,51.5618) rotate(-90)">
			<title>Sheet.37</title>
			<rect x="0" y="87.3291" width="6.00776" height="46.1112" class="st1"/>
		</g>
		<g id="shape39-14" v:mID="39" v:groupContext="shape" transform="translate(-95.8798,44.9938) rotate(-90)">
			<title>Sheet.39</title>
			<rect x="0" y="129.248" width="4.03823" height="4.19193" class="st1"/>
		</g>
		<g id="shape41-16" v:mID="41" v:groupContext="shape" transform="translate(95.8922,-18.6246)">
			<title>Sheet.41</title>
			<desc>LinDistRestoration</desc>
			<v:textBlock v:margins="rect(4,4,4,4)"/>
			<v:textRect cx="277.952" cy="90.8646" width="555.91" height="85.1515"/>
			<rect x="0" y="48.2889" width="555.905" height="85.1515" class="st2"/>
			<text x="8.5" y="112.46" class="st3" v:langID="1033"><v:paragraph v:horizAlign="1"/><v:tabList/>LinDist<tspan
						class="st4">Restoration</tspan></text>		</g>
		<g id="shape42-20" v:mID="42" v:groupContext="shape" transform="translate(-54.0209,44.9938) rotate(-90)">
			<title>Sheet.42</title>
			<rect x="0" y="129.248" width="4.03823" height="4.19193" class="st1"/>
		</g>
		<g id="shape44-22" v:mID="44" v:groupContext="shape" transform="translate(-74.6857,33.7025) rotate(-90)">
			<title>Sheet.44</title>
			<rect x="0" y="129.248" width="4.03823" height="4.19193" class="st1"/>
		</g>
	</g>
</svg>
